<svg xmlns="http://www.w3.org/2000/svg" viewBox="0 0 100 100"><title>Class Icon - Artificer</title><path d="M35,69.28H58.91c1.18-.94,2.05-4.16,1.8-7.81.54-8.88-7.55-14.33-10-15.54V33.53h1.79c1.21,0,1.43-2.17,0-2.42H41.36c-1.42.25-1.21,2.42,0,2.42h1.79v12.4c-2.43,1.21-10.52,6.66-10,15.54C32.92,65.12,33.79,68.34,35,69.28Z"/><path d="M81.73,76.49a9.75,9.75,0,0,0-2.43.3h0l-5.43-5.33-.11-4.34,0,0a30.39,30.39,0,0,0,3.5-9.28h0L85,54.12V49.73l-7.83-4.19a30.8,30.8,0,0,0-6-12.83l-.05-.05L77,.05l4-.21L87,.24L100,.17L84,.82L62,.14c-.84-.08-2,.25-.42,.41L70,.29l-.39,.38L64,.72l0,.05a30,.76,.76,.76,.76,.76,.76,.76,.76,.76,.76,.76,.76,.76,.76,.76,.76,.76,.76Z"/></svg>
